<?xml version="1.0" encoding="utf-8"?>
<!-- Generator: Adobe Illustrator 26.2.1, SVG Export Plug-In . SVG Version: 6.00 Build 0)  -->
<svg version="1.1" id="Capa_1" xmlns="http://www.w3.org/2000/svg" xmlns:xlink="http://www.w3.org/1999/xlink" x="0px" y="0px"
	 viewBox="0 0 697.5 283.4" style="enable-background:new 0 0 697.5 283.4;" xml:space="preserve">
<style type="text/css">
	.st0{fill:#0058AB;}
	.st1{fill:#FBD914;}
</style>
<path class="st0" d="M697.5,283.4H-0.2V0h697.8L697.5,283.4L697.5,283.4z"/>
<path class="st1" d="M13.4,141.7c0,68.5,140.5,125.4,335.3,125.4s335.2-56.8,335.2-125.4S543.4,16.3,348.6,16.3
	S13.4,73.2,13.4,141.7z"/>
<path class="st0" d="M345.6,96.1v85.8c0,3,0,5.9-1.5,8.9h121.4v-28.7c-3,1.5-5.9,1.5-8.9,1.5h-51.1V150h49.1v-21.8h-49.1v-13.6h51.1
	c3,0,5.9,0,8.9,1.4V87.3H344.2C345.6,90.2,345.6,93.1,345.6,96.1z"/>
<path class="st0" d="M633.8,181.9c1,3.3,2.7,6.3,4.9,8.9h-65.8c0.3-3-0.8-5.9-2-8.9c0,0-1-2.4-2.4-5.9l-0.6-1.5H530l-0.6,1.5
	c0,0-1.1,2.9-2.1,5.9s-2.1,5.9-1.7,8.9h-51.9c2.1-2.6,3.7-5.6,4.7-8.9c1.7-4.7,28.7-79.1,31.1-85.8c1.1-3,2.2-5.9,1.8-8.9H599
	c-0.8,3,0.8,5.9,1.9,8.9C603.5,102.7,631.6,176.1,633.8,181.9z"/>
<path class="st1" d="M559.6,152.6c-4.8-12.5-8.7-22.9-9.2-24c-0.8-2.2-1.5-4.5-2-6.8c-0.4,2.3-1.1,4.6-1.8,6.8
	c-0.3,1-4.2,11.5-8.7,24H559.6z"/>
<path class="st0" d="M146,87.2H77.6c1.5,3,1.5,5.9,1.5,8.9v85.8c0,3,0,5.9-1.5,8.9H146c-1.5-3-1.5-5.9-1.5-8.9V96.1
	C144.5,93.1,144.5,90.1,146,87.2z"/>
<path class="st0" d="M612.8,95.4c-0.3-7.3,5.4-13.4,12.7-13.6c0.3,0,0.6,0,0.9,0c7.4-0.1,13.5,5.8,13.6,13.1c0,0.2,0,0.3,0,0.5
	c0.2,7.5-5.7,13.8-13.3,14c-7.5,0.2-13.8-5.7-14-13.3C612.8,95.9,612.8,95.6,612.8,95.4z"/>
<path class="st1" d="M615.5,95.4c0,6,4.8,10.9,10.9,11c6,0,10.9-4.8,11-10.9c0-6-4.8-10.9-10.9-11l0,0c-5.8-0.2-10.7,4.3-10.9,10.1
	C615.5,94.9,615.5,95.1,615.5,95.4z"/>
<path class="st0" d="M623.7,103.5h-2.4V87.2h6.1c2.9,0.1,5.1,2.4,5.1,5.3c0,2-1.1,3.8-2.9,4.8l3.5,6.3h-2.7l-3.2-5.8h-3.5
	L623.7,103.5L623.7,103.5z"/>
<path class="st1" d="M623.7,95.4h3.3c1.6,0.1,3-1.1,3-2.7c0.1-1.6-1.1-3-2.7-3c-0.1,0-0.2,0-0.3,0h-3.3V95.4z"/>
<g>
	<path class="st0" d="M317.9,141.7c0-54.5-47.2-54.5-47.2-54.5c-35.5-0.1-94.8,0-94.8,0c1.4,2.9,1.4,5.8,1.4,8.8v85.8
		c0,3,0,5.9-1.5,8.9c0,0,59.4-0.2,94.9,0C270.7,190.7,317.9,190.7,317.9,141.7z"/>
</g>
<g>
	<path class="st1" d="M234.6,163.5c0,0-3.5-0.1,7.2,0c0,0,13.2,0,13.2-23.2c0-25.9-13.2-25.9-13.2-25.9c-10.6-0.1-7.1,0-7.1,0"/>
</g>
</svg>
